HIERARCHY
ROOT hip
{
  OFFSET 0 0 0
  CHANNELS 6 Xposition Yposition Zposition Zrotation Yrotation Xrotation
  JOINT abdomen
  {
    OFFSET 0 20.6881 -0.73152
    CHANNELS 3 Zrotation Xrotation Yrotation
    JOINT chest
    {
      OFFSET 0 11.7043 -0.48768
      CHANNELS 3 Zrotation Xrotation Yrotation
      JOINT neck
      {
        OFFSET 0 22.1894 -2.19456
        CHANNELS 3 Zrotation Xrotation Yrotation
        JOINT head
        {
          OFFSET -0.24384 7.07133 1.2192
          CHANNELS 3 Zrotation Xrotation Yrotation
          JOINT leftEye
          {
            OFFSET 4.14528 8.04674 8.04672
            CHANNELS 3 Zrotation Xrotation Yrotation
            End Site
            {
              OFFSET 1 0 0
            }
          }
          JOINT rightEye
          {
            OFFSET -3.6576 8.04674 8.04672
            CHANNELS 3 Zrotation Xrotation Yrotation
            End Site
            {
              OFFSET 1 0 0
            }
          }
        }
      }
      JOINT rCollar
      {
        OFFSET -2.68224 19.2634 -4.8768
        CHANNELS 3 Zrotation Xrotation Yrotation
        JOINT rShldr
        {
          OFFSET -8.77824 -1.95073 1.46304
          CHANNELS 3 Zrotation Xrotation Yrotation
          JOINT rForeArm
          {
            OFFSET -28.1742 -1.7115 0.48768
            CHANNELS 3 Zrotation Xrotation Yrotation
            JOINT rHand
            {
              OFFSET -22.5879 0.773209 7.07136
              CHANNELS 3 Zrotation Xrotation Yrotation
              JOINT rThumb1
              {
                OFFSET -1.2192 -0.487915 3.41376
                CHANNELS 3 Zrotation Xrotation Yrotation
                JOINT rThumb2
                {
                  OFFSET -3.37035 -0.52449 3.41376
                  CHANNELS 3 Zrotation Xrotation Yrotation
                  End Site
                  {
                    OFFSET -1.78271 -1.18214 1.43049
                  }
                }
              }
              JOINT rIndex1
              {
                OFFSET -7.75947 0.938293 5.60832
                CHANNELS 3 Zrotation Xrotation Yrotation
                JOINT rIndex2
                {
                  OFFSET -2.54057 -0.884171 1.56538
                  CHANNELS 3 Zrotation Xrotation Yrotation
                  End Site
                  {
                    OFFSET -1.62519 -0.234802 1.16502
                  }
                }
              }
              JOINT rMid1
              {
                OFFSET -8.24714 1.18213 3.41376
                CHANNELS 3 Zrotation Xrotation Yrotation
                JOINT rMid2
                {
                  OFFSET -3.10165 -0.590103 1.0647
                  CHANNELS 3 Zrotation Xrotation Yrotation
                  End Site
                  {
                    OFFSET -2.48547 -0.328903 0.83742
                  }
                }
              }
              JOINT rRing1
              {
                OFFSET -8.82822 0.546677 1.51678
                CHANNELS 3 Zrotation Xrotation Yrotation
                JOINT rRing2
                {
                  OFFSET -2.60934 -0.819778 -0.0198488
                  CHANNELS 3 Zrotation Xrotation Yrotation
                  End Site
                  {
                    OFFSET -2.33842 -0.294052 0.168128
                  }
                }
              }
              JOINT rPinky1
              {
                OFFSET -8.27202 -0.0477905 -0.4584
                CHANNELS 3 Zrotation Xrotation Yrotation
                JOINT rPinky2
                {
                  OFFSET -1.82734 -0.647385 -0.700984
                  CHANNELS 3 Zrotation Xrotation Yrotation
                  End Site
                  {
                    OFFSET -1.69225 -0.51767 -0.607171
                  }
                }
              }
            }
          }
        }
      }
      JOINT lCollar
      {
        OFFSET 2.68224 19.2634 -4.8768
        CHANNELS 3 Zrotation Xrotation Yrotation
        JOINT lShldr
        {
          OFFSET 8.77824 -1.95073 1.46304
          CHANNELS 3 Zrotation Xrotation Yrotation
          JOINT lForeArm
          {
            OFFSET 28.1742 -1.7115 0.48768
            CHANNELS 3 Zrotation Xrotation Yrotation
            JOINT lHand
            {
              OFFSET 22.5879 0.773209 7.07136
              CHANNELS 3 Zrotation Xrotation Yrotation
              JOINT lThumb1
              {
                OFFSET 1.2192 -0.487915 3.41376
                CHANNELS 3 Zrotation Xrotation Yrotation
                JOINT lThumb2
                {
                  OFFSET 3.37035 -0.52449 3.41376
                  CHANNELS 3 Zrotation Xrotation Yrotation
                  End Site
                  {
                    OFFSET 1.78271 -1.18214 1.43049
                  }
                }
              }
              JOINT lIndex1
              {
                OFFSET 7.75947 0.938293 5.60832
                CHANNELS 3 Zrotation Xrotation Yrotation
                JOINT lIndex2
                {
                  OFFSET 2.54057 -0.884171 1.56538
                  CHANNELS 3 Zrotation Xrotation Yrotation
                  End Site
                  {
                    OFFSET 1.62519 -0.234802 1.16502
                  }
                }
              }
              JOINT lMid1
              {
                OFFSET 8.24714 1.18213 3.41376
                CHANNELS 3 Zrotation Xrotation Yrotation
                JOINT lMid2
                {
                  OFFSET 3.10165 -0.590103 1.0647
                  CHANNELS 3 Zrotation Xrotation Yrotation
                  End Site
                  {
                    OFFSET 2.48547 -0.328903 0.83742
                  }
                }
              }
              JOINT lRing1
              {
                OFFSET 8.82822 0.546677 1.51678
                CHANNELS 3 Zrotation Xrotation Yrotation
                JOINT lRing2
                {
                  OFFSET 2.60934 -0.819778 -0.0198488
                  CHANNELS 3 Zrotation Xrotation Yrotation
                  End Site
                  {
                    OFFSET 2.33842 -0.294052 0.168128
                  }
                }
              }
              JOINT lPinky1
              {
                OFFSET 8.27202 -0.0477905 -0.4584
                CHANNELS 3 Zrotation Xrotation Yrotation
                JOINT lPinky2
                {
                  OFFSET 1.82734 -0.647385 -0.700984
                  CHANNELS 3 Zrotation Xrotation Yrotation
                  End Site
                  {
                    OFFSET 1.69225 -0.51767 -0.607171
                  }
                }
              }
            }
          }
        }
      }
    }
  }
  JOINT rButtock
  {
    OFFSET -8.77824 4.35084 1.2192
    CHANNELS 3 Zrotation Xrotation Yrotation
    JOINT rThigh
    {
      OFFSET 0 -1.70687 -2.19456
      CHANNELS 3 Zrotation Xrotation Yrotation
      JOINT rShin
      {
        OFFSET 0 -36.8199 0.73152
        CHANNELS 3 Zrotation Xrotation Yrotation
        JOINT rFoot
        {
          OFFSET 0.73152 -45.1104 -5.12064
          CHANNELS 3 Zrotation Xrotation Yrotation
          End Site
          {
            OFFSET -1.1221 -3.69964 12.103
          }
        }
      }
    }
  }
  JOINT lButtock
  {
    OFFSET 8.77824 4.35084 1.2192
    CHANNELS 3 Zrotation Xrotation Yrotation
    JOINT lThigh
    {
      OFFSET 0 -1.70687 -2.19456
      CHANNELS 3 Zrotation Xrotation Yrotation
      JOINT lShin
      {
        OFFSET 0 -36.8199 0.73152
        CHANNELS 3 Zrotation Xrotation Yrotation
        JOINT lFoot
        {
          OFFSET -0.73152 -45.1104 -5.12064
          CHANNELS 3 Zrotation Xrotation Yrotation
          End Site
          {
            OFFSET 1.1221 -3.69964 12.103
          }
        }
      }
    }
  }
}
MOTION
Frames:	4
Frame Time:	0.03333
-0.08846468350117788 39.788881104221176 0.6949977881450081 -6.993200778961182 -24.311397552490234 6.071199893951416 8.412869453430176 16.9153995513916 -1.6294097900390625 4.274459362030029 -11.174699783325195 0.2687469720840454 -1.4216198921203613 13.800600051879883 6.691949367523193 1.910739779472351 -30.56159782409668 13.994399070739746 -0.0 0.0 -0.0 -0.0 0.0 -0.0 -1.2722218027325094e-14 5.0888872109300376e-14 6.997219643978259e-13 2.917189836502075 31.53809928894043 84.75769805908203 -23.399898529052734 -18.003799438476562 47.86349868774414 -0.015057194977998734 4.058159828186035 0.5705409646034241 5.688103807410805e-11 -7.335643648076484e-09 8.031663667473765e-10 1.0271918732263075e-10 -1.266659666043779e-08 1.3688724598281965e-09 5.688103807410805e-11 -7.335618334991523e-09 8.031599829649849e-10 7.7309088706970215 5.474880218505859 0.41731396317481995 5.688103807410805e-11 -7.335643648076484e-09 8.031663667473765e-10 2.9055399894714355 0.9651829600334167 0.10290198773145676 5.689376053608086e-11 -7.335618334991523e-09 8.031663667473765e-10 10.27859878540039 0.73180091381073 0.025912299752235413 5.6868315612135234e-11 -7.335643648076484e-09 8.031790788010085e-10 2.2216696739196777 -0.7334870100021362 -0.2089199721813202 -1.2722218027325094e-14 5.0888872109300376e-14 6.933608960417448e-13 8.469339370727539 -3.0676498413085938 -121.95299530029297 25.65959930419922 -46.90569305419922 -97.49779510498047 0.7700278162956238 -24.145097732543945 3.6107900142669678 2.2828747781034053e-09 -4.640365425245818e-09 1.8279918689856345e-09 3.922794089561421e-09 -8.131673112643512e-09 3.1938618416660347e-09 2.2828747781034053e-09 -4.640365425245818e-09 1.828010964821658e-09 -7.7309088706970215 5.474880218505859 -0.41731396317481995 2.2828747781034053e-09 -4.640365425245818e-09 1.8279918689856345e-09 -2.9055399894714355 0.9651829600334167 -0.10290198773145676 2.2828747781034053e-09 -4.640365425245818e-09 1.8279918689856345e-09 -10.27859878540039 0.73180091381073 -0.025912299752235413 2.2828747781034053e-09 -4.6403525466587325e-09 1.8279792124431538e-09 -2.2216696739196777 -0.7334870100021362 0.2089199721813202 -0.0 0.0 -0.0 -5.347629547119141 -37.768104553222656 -9.518729209899902 -1.6215100288391113 68.36000061035156 2.7219796180725098 -11.268699645996094 -16.746898651123047 -24.814498901367188 -0.0 0.0 -0.0 40.6974983215332 -57.74559783935547 45.29560089111328 173.98300170898438 77.42630004882812 -174.3199920654297 1.5142399072647095 3.8395602703094482 7.534830570220947
-0.1701111706840302 39.62106335631396 1.4318215203330587 -6.928199291229248 -25.600101470947266 5.841100215911865 8.790300369262695 17.501399993896484 -1.0914100408554077 3.8224997520446777 -11.884099006652832 0.40150198340415955 -1.2597599029541016 13.55150032043457 6.873279571533203 1.5806300640106201 -29.7106990814209 14.229899406433105 -0.0 0.0 -0.0 -0.0 0.0 -0.0 5.0888872109300376e-14 1.1449996224592585e-13 6.361109013662547e-13 -1.7207897901535034 31.41449737548828 88.71719360351562 -24.208498001098633 -19.50480079650879 50.288692474365234 -0.003884299658238888 0.8083240985870361 0.11372099071741104 -1.2462685050618205e-10 -2.102435558981597e-09 9.889806751317565e-10 -2.0958582092056588e-10 -3.593097819276636e-09 1.6902930166651231e-09 -1.2461412457476229e-10 -2.102422902439116e-09 9.889743468605161e-10 7.7309088706970215 5.474880218505859 0.41731396317481995 -1.2462685050618205e-10 -2.1024482155240776e-09 9.889806751317565e-10 2.9055399894714355 0.9651829600334167 0.10290198773145676 -1.2461412457476229e-10 -2.102435558981597e-09 9.889806751317565e-10 10.27859878540039 0.73180091381073 0.025912299752235413 -1.2462685050618205e-10 -2.1024482155240776e-09 9.889871144252993e-10 2.2216696739196777 -0.7334870100021362 -0.2089199721813202 5.0888872109300376e-14 1.1449996224592585e-13 6.361109013662547e-13 9.800068855285645 -3.2526397705078125 -118.76898956298828 24.98609733581543 -48.01990509033203 -99.99779510498047 0.639958918094635 -22.065702438354492 3.2672598361968994 2.075820626501468e-09 -3.2599283272816137e-09 1.2064924614918482e-09 3.574319951127336e-09 -5.725150575841553e-09 2.1164809904661297e-09 2.075820626501468e-09 -3.25995386241118e-09 1.2065115573278717e-09 -7.7309088706970215 5.474880218505859 -0.41731396317481995 2.075820626501468e-09 -3.2599283272816137e-09 1.2064924614918482e-09 -2.9055399894714355 0.9651829600334167 -0.10290198773145676 2.075820626501468e-09 -3.2599283272816137e-09 1.2064924614918482e-09 -10.27859878540039 0.73180091381073 -0.025912299752235413 2.075820626501468e-09 -3.2599283272816137e-09 1.2064924614918482e-09 -2.2216696739196777 -0.7334870100021362 0.2089199721813202 -0.0 0.0 -0.0 -6.061699390411377 -37.08350372314453 -9.738240242004395 -1.6431299448013306 68.78379821777344 2.8397295475006104 -11.468798637390137 -17.71849822998047 -24.35300064086914 -0.0 0.0 -0.0 47.439693450927734 -58.62519836425781 54.64719772338867 174.18399047851562 76.88929748535156 -174.53199768066406 1.3357598781585693 2.7577199935913086 5.4988203048706055
-0.2296414853240614 39.449864664767595 2.1950012983417486 -6.992099285125732 -26.95819854736328 5.764998912811279 8.962160110473633 18.00929832458496 -0.001983719877898693 3.1319198608398438 -12.670600891113281 0.6535208821296692 -0.81141597032547 13.429400444030762 6.789929389953613 1.329850196838379 -28.936399459838867 13.947400093078613 -0.0 0.0 -0.0 -0.0 0.0 -0.0 2.289999244918517e-13 2.544443605465019e-13 1.7811105238255132e-13 -5.038189888000488 32.14200210571289 91.00169372558594 -25.180299758911133 -21.507099151611328 53.87520217895508 -0.008577179163694382 -1.860739827156067 -0.2621019780635834 -1.2633289969699035e-09 -4.012943755071774e-09 3.233097400912044e-10 -2.1811861206089134e-09 -6.915594319423235e-09 5.536136549189052e-10 -1.2633162294051203e-09 -4.012943755071774e-09 3.233097400912044e-10 7.7309088706970215 5.474880218505859 0.41731396317481995 -1.2633289969699035e-09 -4.012981946743821e-09 3.2331609611802037e-10 2.9055399894714355 0.9651829600334167 0.10290198773145676 -1.2633162294051203e-09 -4.012969068156735e-09 3.2331609611802037e-10 10.27859878540039 0.73180091381073 0.025912299752235413 -1.2633289969699035e-09 -4.012943755071774e-09 3.2331609611802037e-10 2.2216696739196777 -0.7334870100021362 -0.2089199721813202 2.289999244918517e-13 2.544443605465019e-13 1.7811105238255132e-13 12.393898963928223 -3.2175300121307373 -114.13499450683594 24.217695236206055 -49.12739944458008 -102.593994140625 0.5418168902397156 -20.284299850463867 2.981370210647583 -3.269609930023343e-11 2.189595393886634e-09 -1.062222532155488e-09 -3.996048630883209e-11 3.825519900857444e-09 -1.841057639673238e-09 -3.269609930023343e-11 2.189595393886634e-09 -1.062197108048224e-09 -7.7309088706970215 5.474880218505859 -0.41731396317481995 -3.2683376838260614e-11 2.1896209290162005e-09 -1.062222532155488e-09 -2.9055399894714355 0.9651829600334167 -0.10290198773145676 -3.269609930023343e-11 2.189595393886634e-09 -1.062222532155488e-09 -10.27859878540039 0.73180091381073 -0.025912299752235413 -3.2683376838260614e-11 2.189595393886634e-09 -1.062222532155488e-09 -2.2216696739196777 -0.7334870100021362 0.2089199721813202 -0.0 0.0 -0.0 -6.735150337219238 -36.47450256347656 -9.693320274353027 -1.6636897325515747 69.20429992675781 2.962930202484131 -11.606100082397461 -18.959999084472656 -23.610300064086914 -0.0 0.0 -0.0 53.95500183105469 -59.13680648803711 63.18499755859375 173.9819793701172 77.4448013305664 -174.33798217773438 1.1353099346160889 1.4950900077819824 3.8823599815368652
-0.26086768614159817 39.24617817843406 2.9707861371028446 -6.949899196624756 -28.520198822021484 5.631199359893799 8.802618980407715 18.5310001373291 1.4644399881362915 2.5955400466918945 -13.36150074005127 1.008080005645752 -0.5463180541992188 13.36620044708252 6.652069568634033 1.101400375366211 -28.380098342895508 13.580698013305664 -0.0 0.0 -0.0 -0.0 0.0 -0.0 2.289999244918517e-13 2.035554884372015e-13 -6.361109013662547e-14 -6.674408912658691 34.642601013183594 91.46269989013672 -26.49519920349121 -24.77010154724121 58.56159591674805 -0.04371039569377899 -4.977389335632324 -0.7059649229049683 -1.4089347466494928e-09 -4.075613624365815e-09 2.6711569067749963e-10 -2.435706747405675e-09 -7.0345724800802145e-09 4.6049977719953006e-10 -1.4089347466494928e-09 -4.0756260588636906e-09 2.6711569067749963e-10 7.7309088706970215 5.474880218505859 0.41731396317481995 -1.4089347466494928e-09 -4.075638937450776e-09 2.671220467043156e-10 2.9055399894714355 0.9651829600334167 0.10290198773145676 -1.4089347466494928e-09 -4.075638937450776e-09 2.671220467043156e-10 10.27859878540039 0.73180091381073 0.025912299752235413 -1.408947514214276e-09 -4.075613624365815e-09 2.671220467043156e-10 2.2216696739196777 -0.7334870100021362 -0.2089199721813202 2.289999244918517e-13 2.035554884372015e-13 -6.361109013662547e-14 15.631599426269531 0.35708099603652954 -108.55699157714844 23.455997467041016 -50.04399871826172 -104.95799255371094 0.6331368088722229 -21.920499801635742 3.2482495307922363 -6.254369799840731e-10 4.217771465420128e-09 -1.755481648935131e-09 -1.051885689662413e-09 7.365286602833976e-09 -3.0503617409749495e-09 -6.254369799840731e-10 4.217771465420128e-09 -1.755481648935131e-09 -7.7309088706970215 5.474880218505859 -0.41731396317481995 -6.254242124192899e-10 4.21779677850509e-09 -1.7554879772063714e-09 -2.9055399894714355 0.9651829600334167 -0.10290198773145676 -6.254369799840731e-10 4.217771465420128e-09 -1.755481648935131e-09 -10.27859878540039 0.73180091381073 -0.025912299752235413 -6.254242124192899e-10 4.217771465420128e-09 -1.7554879772063714e-09 -2.2216696739196777 -0.7334870100021362 0.2089199721813202 -0.0 0.0 -0.0 -7.38292932510376 -36.005401611328125 -9.282419204711914 -1.6986004114151 69.6874008178711 3.08454966545105 -11.677399635314941 -20.0802001953125 -22.894298553466797 -0.0 0.0 -0.0 59.913700103759766 -59.22469711303711 69.98249816894531 173.37298583984375 78.826904296875 -173.71499633789062 0.7542479634284973 0.4508809745311737 1.6374897956848145
